<?xml version="1.0" encoding="UTF-8"?>
<svg id="Layer_2" data-name="Layer 2" xmlns="http://www.w3.org/2000/svg" viewBox="0 0 350.84 469.71">
  <defs>
    <style>
      .cls-1 {
        stroke-width: 0px;
      }
    </style>
  </defs>
  <g id="katman_1" data-name="katman 1">
    <g id="Layer_1-2" data-name="Layer 1-2">
      <g id="Cd2E06">
        <path class="cls-1" d="m27.95,273.8c-3.51-2.07-4.78-4.8-3.88-8.16.75-2.84,3.26-4.92,6-4.99,2.92-.08,5.16,1.52,6.03,4.28,1.06,3.4-.35,6.3-4.41,8.97,1.8,4.56,3.59,9.13,5.39,13.71,2.36,5.98,4.75,11.97,7.06,17.98.43,1.15,1.04,1.64,2.25,1.67,3.06.1,6.11.27,9.19.42v-14.5h-4.15c-2.09,0-2.53-.69-1.52-2.55,4.44-8.15,8.9-16.28,13.36-24.43,2.36-4.33,4.76-8.63,7.07-12.99.59-1.12,1.3-1.56,2.58-1.52,4.7.08,9.4.03,14.32.03.18-2.92.35-5.55.5-8.18.08-1.44.05-2.9.19-4.35.13-1.15-.16-1.73-1.43-1.73-.98,0-1.97-.11-2.94-.32-1.09-.22-1.57-.95-.75-1.88,3.48-4.01,5.1-8.95,6.74-13.83,4.78-14.19,7.49-28.82,9-43.69.11-1.17-.45-1.44-1.3-1.84-2.58-1.2-3.83-3.37-3.77-6.14.05-2.84,1.46-5,4.07-6.19,2.45-1.12,4.8-.72,6.82,1.03,3.35,2.89,2.77,8.53-1.09,10.92-.43.27-.91.5-1.54.83.5,4.67.91,9.4,1.52,14.11,1.44,11.28,3.3,22.49,6.21,33.51.83,3.19,1.75,6.38,3.19,9.38.4.83.75,1.73,1.68,2.13.61.27.98.69.79,1.36-.21.72-.82.95-1.49.96h-5.04v11.84h10.18v-96.86s-.13-.08-.29-.11c-2.69-.32-2.57-.32-2.41-2.94.35-5.55-.4-10.99-1.97-16.33-.14-.5-.3-1.03-.82-1.3-.66-.35-.93-.88-.66-1.59.29-.72.95-.77,1.6-.79,2.09-.03,4.17-.06,6.27-.13.34,0,.67-.11,1.24-.19v-15.14c-.4-.27-.93-.13-1.44-.11-2.28.05-2.52-.22-2.04-2.52,1.38-6.58,2.79-13.17,4.17-19.74,3.8-17.98,7.52-35.99,11.45-53.94.91-4.15.74-8.29.83-12.43.19-7.89.19-15.78.26-23.67,0-.29,0-.58.03-.87.08-.56.35-1.03.99-.99.55.03.8.5.82.98,0,.87.18,1.52,1.01,2.04,6.94,4.28,14.4,6.93,22.63,7.03,2.12.03,4.36.03,5.68-2.21.26-.43.77-.53,1.24-.24.45.29.5.77.35,1.24-2.07,7.55-7.73,15.19-17.93,14.16-4.27-.43-8.02-2.17-11.6-4.41-.38-.24-.79-.5-1.17-.74-.03-.02-.11,0-.56.03v8.21c-.02,3.08-.18,6.16-.05,9.22.06,1.46.69,2.9,1.03,4.36,5.61,23.93,11.21,47.88,16.82,71.82.1.4.19.79.24,1.19.24,1.57-.26,2.13-1.88,2.09-.63-.02-1.27-.05-2.07-.1-.16,4.47-.45,8.85-.3,13.46,2.15.24,4.27.47,6.37.71.69.08,1.4.13,2.05.34,1.01.3,1.33,1.11.69,1.88-3.21,3.95-3.42,8.76-3.98,13.46-.32,2.65-.27,5.31.38,7.96.35,1.4-.34,1.94-1.75,1.57-.56-.14-1.12-.3-1.68-.43-.16-.03-.34,0-.51,0-.48.58-.27,1.25-.27,1.84.16,12.24.37,24.49.5,36.73,0,1.22.47,1.57,1.57,1.75,3.34.55,3.38.61,4.84-2.49,3.67-7.83,5.76-16.15,7.67-24.52,1.67-7.3,2.9-14.68,3.35-22.17.03-.64.06-1.27.1-1.91.06-1.19-.21-1.97-1.51-2.52-2.68-1.12-3.85-3.96-3.29-7.15.51-2.81,2.89-5.1,5.65-5.41,2.68-.3,5.04,1.09,6.13,3.62,1.3,3.02.18,6.67-2.74,8.55-.79.5-1.11,1.01-1.11,1.92.13,13.94,2.84,27.3,8.89,39.91.95,1.97,2.09,3.85,3.54,5.52.55-.42.35-.91.35-1.33.05-9.75.05-19.5.13-29.24.02-1.96-.24-3.77-1.07-5.55-.8-1.73-1.44-3.54-2.17-5.31-.88-2.17-.56-2.68,1.8-2.77.34,0,.69-.05,1.17-.08v-9.7c-.29-.38-.72-.26-1.11-.27-2.49-.06-2.53-.18-1.94-2.66,5.29-21.88,10.38-43.79,16.02-65.57,1.12-4.35.75-8.47.96-12.69.13-2.6,0-5.23,0-7.83,0-.61.06-1.22.88-1.22.56,0,.87.4.82.93-.34,3.24,2.13,4.11,4.36,5,5.79,2.36,11.87,3.58,18.06,4.3,2.42.29,4.86.35,7.3.24.59-.03,1.22-.06,1.43.66.18.64-.11,1.15-.71,1.43-8.31,3.83-16.82,6.64-26.18,5.73-1.28-.13-2.47-.63-3.67-.96-.37.35-.4.85-.22,1.15,1.88,3.16,1.75,6.78,2.34,10.22,3.29,19.15,6.43,38.32,9.62,57.48.06.34.11.69.18,1.03.56,2.6.53,2.65-2.23,2.66-1.22,0-2.44.02-3.66.05-.11,0-.21.08-.51.21-.14,3.06-.29,6.21-.43,9.35,1.09.42,2.02.14,2.92.19,1.49.1,1.88.61,1.28,2-1.2,2.77-2.45,5.52-3.74,8.24-.29.59-.47,1.15-.47,1.81.27,19.33.55,38.64.82,57.97,0,.05.05.1.24.59,1.8-5.81,3.5-11.26,5.21-16.78-1.76-1.15-3.13-2.5-3.16-4.75-.05-2.6,1.65-4.91,4.17-5.52,2.68-.66,5.41.56,6.46,2.87,1.09,2.36.42,5.08-1.86,6.61-1.03.69-1.12,1.28-.87,2.41,3.38,14.27,6.7,28.57,10.04,42.86.67,2.88-.44,4.47-3.34,4.8v22.6h9.99c.4-.42.27-.91.29-1.36.08-11.32.14-22.63.26-33.95,0-1.24-.16-2.1-1.52-2.47-1.15-.3-1.32-1.3-1.36-2.36-.21-6.03-.43-12.06-.64-18.09-.03-1.09,0-2.2,0-3.18-1.06-.71-2.12-.43-3.03-.82-1.03-.43-1.2-1.14-.43-1.86,5.36-4.99,8.9-11.26,12.32-17.59,4.38-8.07,8.05-16.46,10.47-25.34.42-1.51-.06-3.45,1.86-4.39.24-.11.13-.98.14-1.49.06-10.51.13-21.01.21-31.52,0-.72-.29-1.62.5-2.09.85-.5,1.4.32,1.99.71,6.5,4.3,13.28,8.07,20.59,10.81,1.64.61,3.3,1.81,5.24.66.43-.26.83.19.98.72.21.8-.03,1.36-.8,1.68-2.33.96-4.76,1.46-7.25,1.72-6.54.71-12.96.3-19.36-2.18v21.7c1.56-.4,1.75.59,2.04,1.89.91,3.99,2.94,7.55,4.92,11.08,6.42,11.39,13.75,22.18,21.99,32.35.53.64,1.43,1.24.99,2.23-.45,1.03-1.49.67-2.33.71-.63.03-1.25,0-1.75,0-.43.66-.3,1.2-.3,1.7-.1,6.78-.19,13.57-.24,20.37,0,1.09-.45,1.52-1.46,1.76-2.68.64-2.69.67-2.66,3.48.13,11.48.27,22.98.37,34.47,0,1.12.35,1.97,1.06,2.82,6.67,7.96,13.31,15.94,19.97,23.9.34.4.53.79.4,1.25-.16.58-.66.79-1.2.82-.8.06-1.62-.14-2.6.24-.42,8.24-.83,16.57-1.27,25.07,1.94.21,3.75.38,5.82.61-.1-1.84-.14-3.56-.27-5.26-.34-4.91-.71-9.83-1.07-14.74-.1-1.25.56-1.65,1.65-1.7,2.61-.11,5.21-.27,7.83-.34.75-.02,1.28-.14,1.67-.91,4.31-8.73,8.68-17.45,13.01-26.18.05-.1,0-.22,0-.32-4.81-2.73-6.5-5.82-5.34-9.82.91-3.16,3.74-5.1,7.14-4.91,3.11.18,5.95,2.79,6.54,6.05.72,3.96-1.04,6.78-5.63,8.77,1.84,3.27,3.67,6.54,5.5,9.8,2.98,5.31,6.01,10.59,8.95,15.93.64,1.15,1.32,1.67,2.69,1.62,2.44-.08,4.88.06,7.31.13,2.28.06,2.47.32,2.15,2.77-.9,7.07-1.81,14.15-2.71,21.22-.37,2.87-.75,5.74-1.03,8.63-.11,1.07-.64,1.41-1.57,1.41h-4.25c0,3-.11,5.76.02,8.5.37,7.99.83,15.99,1.27,23.98.51,9.74,1.04,19.46,1.54,29.19.56,10.89,1.12,21.78,1.68,32.67.47,9.16.93,18.3,1.4,27.46.02.4-.02.85.14,1.2,1.06,2.31-.5,3.35-2.05,4.41-4.46,3.03-9.48,4.59-14.74,5.41-7.51,1.14-14.93.9-22.13-1.7-2.61-.95-5.13-2.07-6.91-4.44-.83-1.11-2.26-1.6-3.59-2.04-9.27-3.03-18.38-2.58-27.31,1.35-.87.38-1.48.95-2.02,1.78-1.89,2.87-4.91,3.99-8.1,4.57-9.22,1.67-18.01-.06-26.46-3.77-1.67-.74-3.27-1.23-5.13-1.28-9.22-.27-18.43-.69-27.65-.99-3.66-.13-3.66-.05-3.67-3.79-.1-17.11-.19-34.24-.29-51.36,0-.69.05-1.4-.37-2.02-4.46-6.38-9.86-11.66-17.58-13.76-9.32-2.53-16.68.99-22.66,8.08-.45.53-.87,1.09-1.28,1.65-2.09,2.79-3.29,5.77-3.35,9.43-.3,14.39-.88,28.76-1.38,43.13-.08,2.49-.37,4.97-.26,7.47.06,1.36-.87,1.38-1.88,1.38-9.64,0-19.26,0-28.9-.03-1.6,0-2.87.32-4.2,1.46-3.64,3.14-8.21,4.2-12.85,4.86-7.91,1.11-15.73.79-23.35-1.86-2.94-1.03-5.52-2.63-7.75-4.83-4.25-4.17-10.7-5.04-15.73-2.13-1.43.82-2.61,1.84-3.38,3.38-.95,1.89-2.73,2.97-4.57,3.87-4.57,2.2-9.46,3.1-14.45,3.54-6.93.61-13.79.34-20.55-1.48-2.49-.66-4.83-1.64-6.86-3.27-1.24-.98-1.72-2.13-1.56-3.79,1.27-13.97,2.44-27.96,3.67-41.94,1.22-13.81,2.47-27.6,3.69-41.41.95-10.79,1.86-21.6,2.84-32.4.11-1.15-.19-1.78-1.25-2.31-2.58-1.3-5.1-2.74-7.65-4.12-.63-.34-1.12-.67-1.25-1.51-1.35-8.95-2.74-17.88-4.12-26.82-.34-2.23-.19-2.41,2-2.49,3.59-.14,7.19-.29,10.78-.4.83-.03,1.35-.21,1.72-1.07,4.41-10.67,8.87-21.32,13.31-31.97.06-.16.08-.34.13-.59l-.13-.05Zm202.64,176.3c1.51-36.94,3-73.68,4.51-110.48h-6.86c-.21,36.78-.42,73.41-.64,110.11,1.07.13,1.86.22,3,.37Zm-113.96.27c1.67.04,2.5-.67,2.5-2.13-.03-35.4-.05-70.8-.08-106.18v-1.22c0-.47-.18-.8-.66-.88-2.04-.32-4.07-.64-6.34-.99,1.52,37.27,3.05,74.28,4.57,111.41h0Zm44.77-177.58v38.32c1.07.03,1.99.21,2.89-.11v-38.04c-1.01-.05-1.88-.1-2.89-.16h0Zm13.75-14.16c1.01.14,2.12.19,3.29-.21v-30.86c-1.11.03-2.07-.19-3.29.26v30.81h0Zm.71,14.32c0,12.62-.51,25.28-.27,37.98,1.04-.03,1.91.14,2.73-.29v-37.74c-.83-.26-1.56-.26-2.45.05Zm-11.76-14.6v-31.04c-.98.08-1.96-.03-2.97.4v30.43c.98.26,1.88.37,2.97.22v-.02Z"/>
      </g>
    </g>
  </g>
</svg>